<!-- icon666.com - MILLIONS vector ICONS FREE --><svg id="Layer_1" enable-background="new 0 0 28 28" viewBox="0 0 28 28" xmlns="http://www.w3.org/2000/svg"><g id="_x33_2"><path d="m25 6.1h-6.8v-2c0-1.1-.9-2-2-2h-4.4c-1.1 0-2 .9-2 2v2h-6.8c-.6 0-1 .4-1 1s.4 1 1 1h1.9v14.8c0 1.6 1.4 3 3 3h12.5c1.7 0 3-1.4 3-3v-14.8h1.6c.6 0 1-.4 1-1s-.4-1-1-1zm-13.2-2h4.4v2h-4.4zm5.3 13.4c.4.4.4 1 0 1.4s-1 .4-1.4 0l-1.6-1.6-1.6 1.6c-.4.4-1 .4-1.4 0s-.4-1 0-1.4l1.6-1.6-1.6-1.6c-.4-.4-.4-1 0-1.4s1-.4 1.4 0l1.6 1.6 1.6-1.6c.4-.4 1-.4 1.4 0s.4 1 0 1.4l-1.6 1.6z" fill="#000000" style="fill: rgb(85, 85, 85);"></path></g></svg>