<svg viewBox="0 0 467 467.83027" xmlns="http://www.w3.org/2000/svg" xmlns:xlink="http://www.w3.org/1999/xlink"><linearGradient id="a"><stop offset="0" stop-color="#00efd1"></stop><stop offset="1" stop-color="#00acea"></stop></linearGradient><linearGradient id="b" gradientUnits="userSpaceOnUse" x1="234.331835" x2="234.331835" xlink:href="#a" y1="9.532833" y2="459.932833"></linearGradient><linearGradient id="c" gradientUnits="userSpaceOnUse" x1="137.182835" x2="137.182835" xlink:href="#a" y1="9.532833" y2="459.932833"></linearGradient><linearGradient id="d" gradientUnits="userSpaceOnUse" x1="205.831835" x2="205.831835" xlink:href="#a" y1="9.532833" y2="459.932833"></linearGradient><linearGradient id="e" gradientUnits="userSpaceOnUse" x1="270.932835" x2="270.932835" xlink:href="#a" y1="9.532833" y2="459.932833"></linearGradient><linearGradient id="f" gradientUnits="userSpaceOnUse" x1="336.932835" x2="336.932835" xlink:href="#a" y1="9.532833" y2="459.932833"></linearGradient><path d="m234.332031 65.976562c-92.601562 0-167.941406 75.339844-167.941406 167.941407 0 92.597656 75.339844 167.941406 167.941406 167.941406 92.601563 0 167.941407-75.34375 167.941407-167.941406 0-92.601563-75.339844-167.941407-167.941407-167.941407zm0 319.882813c-83.78125 0-151.941406-68.160156-151.941406-151.941406s68.160156-151.941407 151.941406-151.941407 151.941407 68.160157 151.941407 151.941407-68.160157 151.941406-151.941407 151.941406zm0 0" fill="url(#b)"></path><path d="m440.03125 182.730469c-1.410156-2.148438-2.097656-4.695313-1.960938-7.261719l2.363282-42.988281c.613281-11.105469-5.40625-21.519531-15.332032-26.53125l-38.199218-19.300781c-2.289063-1.152344-4.148438-3.011719-5.300782-5.300782l-19.300781-38.199218c-5.011719-9.929688-15.425781-15.945313-26.53125-15.332032l-42.988281 2.363282c-2.570312.136718-5.113281-.550782-7.265625-1.964844l-35.773437-23.585938c-9.347657-6.171875-21.476563-6.171875-30.824219 0l-35.769531 23.589844c-2.152344 1.410156-4.699219 2.097656-7.265626 1.960938l-42.988281-2.363282c-11.105469-.609375-21.515625 5.410156-26.53125 15.332032l-19.300781 38.203124c-1.152344 2.289063-3.007812 4.148438-5.300781 5.296876l-38.199219 19.300781c-9.925781 5.015625-15.941406 15.425781-15.332031 26.53125l2.367187 42.984375c.136719 2.570312-.550781 5.117187-1.960937 7.265625l-23.59375 35.773437c-6.171875 9.347656-6.171875 21.476563 0 30.824219l23.589843 35.773437c1.410157 2.152344 2.097657 4.695313 1.960938 7.265626l-2.363281 42.988281c-.609375 11.101562 5.410156 21.515625 15.335937 26.53125l38.199219 19.300781c2.289063 1.148438 4.148437 3.007812 5.300781 5.296875l19.296875 38.203125c5.015625 9.925781 15.425781 15.941406 26.53125 15.328125l42.988281-2.363281c2.566407-.136719 5.113282.550781 7.265626 1.960937l35.769531 23.585938c9.347656 6.175781 21.476562 6.175781 30.824219 0l35.773437-23.582031c2.148437-1.414063 4.695313-2.105469 7.265625-1.964844l42.988281 2.367187c11.105469.617188 21.523438-5.402343 26.53125-15.332031l19.300781-38.203125c1.148438-2.289063 3.007813-4.148437 5.300782-5.296875l38.199218-19.300781c9.925782-5.015625 15.941407-15.429688 15.332032-26.53125l-2.367188-42.988281c-.136718-2.570313.550782-5.113282 1.960938-7.265626l23.585937-35.773437c6.175781-9.347656 6.175781-21.476563 0-30.824219zm10.230469 57.792969-23.585938 35.769531c-3.292969 5.019531-4.898437 10.957031-4.582031 16.953125l2.363281 42.988281c.265625 4.757813-2.316406 9.222656-6.570312 11.371094l-38.199219 19.300781c-5.34375 2.683594-9.683594 7.019531-12.367188 12.367188l-19.300781 38.199218c-2.144531 4.257813-6.609375 6.835938-11.371093 6.570313l-42.988282-2.367188c-5.992187-.320312-11.933594 1.285157-16.949218 4.582031l-35.773438 23.585938c-4.007812 2.644531-9.203125 2.644531-13.210938 0l-35.773437-23.589844c-4.589844-3.007812-9.953125-4.613281-15.441406-4.621094-.503907 0-1.007813.015626-1.507813.042969l-42.988281 2.363281c-4.757813.265626-9.222656-2.316406-11.371094-6.566406l-19.300781-38.203125c-2.6875-5.34375-7.023438-9.679687-12.367188-12.367187l-38.199218-19.296875c-4.253906-2.152344-6.832032-6.613281-6.570313-11.371094l2.363281-42.988281c.316407-5.996094-1.289062-11.933594-4.582031-16.953125l-23.585937-35.769531c-2.644532-4.007813-2.644532-9.207032 0-13.210938l23.585937-35.773438c3.292969-5.019531 4.898438-10.957031 4.582031-16.953124l-2.367187-42.984376c-.261719-4.761718 2.316406-9.222656 6.570313-11.371093l38.203124-19.300781c5.34375-2.6875 9.679688-7.023438 12.367188-12.367188l19.300781-38.199219c2.148438-4.253906 6.609375-6.832031 11.371094-6.570312l42.984375 2.363281c5.996094.316406 11.933594-1.289062 16.953125-4.582031l35.777344-23.585938c4.007812-2.644531 9.207031-2.644531 13.210937 0l35.773438 23.585938c5.019531 3.292969 10.957031 4.898437 16.949218 4.582031l42.988282-2.367188c4.761718-.265624 9.226562 2.316407 11.371094 6.570313l19.300781 38.199219c2.6875 5.347656 7.023437 9.683594 12.367187 12.367187l38.203125 19.300781c4.253907 2.148438 6.832031 6.613282 6.566407 11.371094l-2.363282 42.988282c-.316406 5.996093 1.289063 11.933593 4.582032 16.953124l23.585937 35.769532c2.644531 4.007812 2.644531 9.207031-.003906 13.214844zm0 0" fill="url(#b)"></path><path d="m156.230469 197.066406c-2.5 0-4.5.796875-5.097657 2.898438l-13.902343 51.300781-14-51.300781c-.597657-2.101563-2.597657-2.898438-5.097657-2.898438-4.300781 0-10 2.699219-10 6.398438.023438.371094.09375.742187.199219 1.101562l18.699219 61c1.101562 3.5 5.601562 5.199219 10.199219 5.199219 4.601562 0 9.101562-1.699219 10.203125-5.199219l18.597656-61c.105469-.359375.175781-.730468.199219-1.101562 0-3.699219-5.699219-6.398438-10-6.398438zm0 0" fill="url(#c)"></path><path d="m205.78125 197.066406c-13.800781 0-24.449219 6.398438-24.449219 23.597656v26.5c0 17.199219 10.648438 23.601563 24.449219 23.601563s24.550781-6.402344 24.550781-23.601563v-26.5c0-17.199218-10.75-23.597656-24.550781-23.597656zm8.550781 50.097656c0 6.902344-3.449219 10-9.050781 10-5.597656 0-8.949219-3.097656-8.949219-10v-26.5c0-6.898437 3.347657-10 8.949219-10s9.050781 3.101563 9.050781 10zm0 0" fill="url(#d)"></path><path d="m292.53125 196.917969h-43.199219c-3.300781 0-4.699219 3.597656-4.699219 6.898437 0 3.800782 1.699219 7.101563 4.699219 7.101563h14v54.449219c0 3.203124 3.601563 4.800781 7.5 4.800781 3.898438 0 7.5-1.597657 7.5-4.800781v-54.449219h14.199219c3 0 4.699219-3.300781 4.699219-7.101563 0-3.300781-1.398438-6.898437-4.699219-6.898437zm0 0" fill="url(#e)"></path><path d="m313.332031 201.863281v63.5c0 3.203125 3.5 4.550781 6.898438 4.550781h35.601562c3.300781 0 4.699219-3.203124 4.699219-6.402343 0-3.699219-1.699219-6.597657-4.699219-6.597657h-26.5v-16.996093h14.699219c3.300781 0 4.699219-3.199219 4.699219-5.902344 0-3.199219-1.699219-6.097656-4.699219-6.097656h-14.699219v-17h26.5c3 0 4.699219-3.402344 4.699219-7.101563 0-3.199218-1.398438-6.898437-4.699219-6.898437h-35.601562c-3.398438 0-6.898438 1.746093-6.898438 4.945312zm0 0" fill="url(#f)"></path></svg>