<!-- icon666.com - MILLIONS vector ICONS FREE --><svg clip-rule="evenodd" fill-rule="evenodd" stroke-linejoin="round" stroke-miterlimit="2" viewBox="0 0 32 32" xmlns="http://www.w3.org/2000/svg" xmlns:xlink="http://www.w3.org/1999/xlink"><linearGradient id="_Linear1" gradientUnits="userSpaceOnUse" x1="2" x2="30" y1="16" y2="16"><stop offset="0" stop-color="#f78cff"></stop><stop offset="1" stop-color="#6dc8ff"></stop></linearGradient><g id="Icon"><path d="m25 30c.552 0 1-.448 1-1v-6c0-.552-.448-1-1-1h-22c-.552 0-1 .448-1 1v6c0 .552.448 1 1 1zm-1-2h-20v-4h20zm-5-8c.552 0 1-.448 1-1v-6c0-.552-.448-1-1-1h-16c-.552 0-1 .448-1 1v6c0 .552.448 1 1 1zm3.293-3.293 2 2c.205.205.489.311.778.29.289-.02.555-.165.729-.397l3-4c.331-.442.242-1.069-.2-1.4s-1.069-.242-1.4.2l-2.308 3.078s-1.185-1.185-1.185-1.185c-.39-.39-1.024-.39-1.414 0s-.39 1.024 0 1.414zm-4.293 1.293h-14v-4h14zm11-8c.552 0 1-.448 1-1v-6c0-.552-.448-1-1-1h-26c-.552 0-1 .448-1 1v6c0 .552.448 1 1 1zm-1-2h-24v-4h24z" fill="url(#_Linear1)"></path></g></svg>